<svg viewBox="0 0 64 64" fill="none" xmlns="http://www.w3.org/2000/svg">
  <path d="M10 24C10 21.7909 11.7909 20 14 20H26L30 26H50C52.2091 26 54 27.7909 54 30V48C54 50.2091 52.2091 52 50 52H14C11.7909 52 10 50.2091 10 48V24Z" fill="#4ADE80"></path>
  <rect x="20" y="14" width="24" height="28" fill="white" rx="2"></rect>
  <rect x="24" y="20" width="16" height="2" rx="1" fill="#E2E8F0"></rect>
  <rect x="24" y="24" width="12" height="2" rx="1" fill="#E2E8F0"></rect>
  <path d="M10 32C10 29.7909 11.7909 28 14 28H50C52.2091 28 54 29.7909 54 32V48C54 50.2091 52.2091 52 50 52H14C11.7909 52 10 50.2091 10 48V32Z" fill="#16A34A"></path>
</svg>